<?xml version="1.0" encoding="UTF-8"?>
<svg id="uuid-c3c1303b-b3a7-4d98-a705-dd25f8bd19c5" data-name="Layer 2" xmlns="http://www.w3.org/2000/svg" viewBox="0 0 368.7 312.8">
  <path d="M253.5,72.2c2.4,2.3,3.9,5.4,3.9,8.8s-1.5,6.6-3.9,8.8c-2.4,2.3-5.8,3.7-9.5,3.7s-7.1-1.4-9.5-3.7c-2.4-2.3-3.9-5.4-3.9-8.8s1.5-6.6,3.9-8.8,5.8-3.7,9.5-3.7,7.1,1.4,9.5,3.7Z" fill="#282b41" stroke-width="0"/>
  <g>
    <path d="M161.1,265.5c-21,3-42.1-3.2-59.1-15.5-17.1-12.3-30.2-30.8-35.3-52.6" fill="none" stroke="#edec91" stroke-linecap="round" stroke-linejoin="round" stroke-width="10"/>
    <path d="M199.7,226.7c-6.8,10.6-18.9,17.4-32.8,20.1-13.9,2.6-29.8,1-44.3-5.6" fill="none" stroke="#edec91" stroke-linecap="round" stroke-linejoin="round" stroke-width="10"/>
    <path d="M187.4,191.2c-13,14.4-33,22.2-54.8,23s-45.4-5.2-65.6-18.4" fill="none" stroke="#edec91" stroke-linecap="round" stroke-linejoin="round" stroke-width="10"/>
    <path d="M275.7,165.4c.4.2.8.5,1.2.7" fill="none" stroke="#edec91" stroke-linecap="round" stroke-linejoin="round" stroke-width="10"/>
    <path d="M274.5,164.6c.4.3.8.5,1.2.8" fill="none" stroke="#edec91" stroke-linecap="round" stroke-linejoin="round" stroke-width="10"/>
    <path d="M313.6,112.6c-.3-.4-.6-.8-1-1.2-.2-.3-.5-.6-.7-1" fill="none" stroke="#65e6cd" stroke-linecap="round" stroke-linejoin="round" stroke-width="10"/>
    <path d="M277.5,166.5c2.5,7.1,7.6,15.2,16.2,24.2,1.1,1.1,55.2,46,11.6,101.2-10.6,11.2-25.6,15.9-39.5,15.9h-130.7c-24.9,0-47.5-10.1-63.9-26.3-16.4-16.2-26.4-38.7-26.4-63.5v-24.3c0-1.5-.7-2.8-1.7-3.6-1.1-.9-2.4-1.2-3.9-.9-8.9,2.1-17.5-.6-23.8-6.2-6.4-5.7-10.5-14.2-10.4-23.9,0-8.5,3.2-16.2,8.2-21.8,5.1-5.6,12.2-9,19.9-9h0c6.4,0,12.3,2.3,17,6.2s8.3,9.4,10,15.8c.3,1,.9,1.9,1.7,2.5.8.6,1.8,1,2.8,1,0,0,25.6,0,51.1,0,25.6,0,51.1,0,51.2,0,1.9,0,3.4-1.1,4.1-2.5.7-1.5.6-3.3-.5-4.8-10.1-12.5-15.3-27.6-15.8-43-.5-15.4,3.9-31,13.1-44.5.8-1.7.5-2.8-.3-3.7-.9-.9-2.4-1.5-4-2.2-12.2-5.1-16.7-16-14.9-25.8,1.8-9.8,10-18.6,23.1-19.6,6-.5,11.9,1.2,16.8,4.6,4.8,3.3,8.2,7.8,9.7,13.3.2.6.3,1.2.5,1.9.3.9.7,1.6,1.1,2.1.6.8,1.5,1.1,2.8,1,1.6-.3,3.3-.9,5-1.5s3.4-1.3,5-1.7c9.8-3,20.1-4.3,30.4-3.8,10.3.4,20.4,2.6,29.9,6.4,1.2.5,2.6,1,3.8.9s2.3-.6,2.9-2.2c.7-2.2,1.4-4.6,2.4-7.1s2.1-4.7,3.7-6.6c7.4-9.3,18.2-11.6,27.6-8.8,9.4,2.8,17.4,10.8,19.3,22.2,1.1,6,0,12.2-2.6,17.5-2.6,5.3-6.9,9.8-12.3,12.2-3.4,1.6-4.4,3.1-4.2,5,.2,1.9,1.6,4.1,2.9,6.9,4.9,9.2,6.2,22,5.1,35.3-.4,4.3-1.8,8.3-4.1,11.7-1.2-1.2-2.3-2.5-3.5-3.9" fill="none" stroke="#65e6cd" stroke-linecap="round" stroke-linejoin="round" stroke-width="10"/>
    <path d="M311.9,110.4c-.7-.9-1.4-1.9-2.1-2.9-10.6-15.5-20.9-16-29.4-11.5s-15.2,13.9-18.4,18.2h0c-9.4,12.5-7.9,29.2,3,42,2.6,3.1,5.8,5.9,9.5,8.4.4.3.8.5,1.2.8,0,0,0,0,0,0,.4.2.8.5,1.2.7.2.1.4.3.6.4,11.5,6.7,27.3,10.2,47,7.9,18.2-2.1,28.3-7,33.7-12.6,5.4-5.6,6-12,5.1-17.2-.4-2.7-1.8-5.1-3.7-6.9-1.9-1.8-4.3-2.9-7-3.2-4.9-.4-11.9-1.8-19.6-5.8-6.2-3.2-12.8-8.2-19-15.7-.1-.2-.3-.4-.4-.5-.3-.4-.6-.8-1-1.2-.2-.3-.5-.6-.7-1Z" fill="none" stroke="#edec91" stroke-linecap="round" stroke-linejoin="round" stroke-width="10"/>
  </g>
</svg>