<?xml version="1.0" encoding="UTF-8"?>
<svg xmlns="http://www.w3.org/2000/svg" viewBox="0 0 368.68 312.78">
  <defs>
    <style>
      .uuid-ef85ad76-3326-456e-80c5-83049134afc0 {
        fill: #21afcf;
        stroke-width: 0px;
      }

      .uuid-f6d1a41e-315a-4a6c-bf09-566658ed787c {
        stroke: #f8991f;
        stroke-miterlimit: 10;
      }

      .uuid-f6d1a41e-315a-4a6c-bf09-566658ed787c, .uuid-23350197-a230-4e61-94b6-f0ac0773a7a9 {
        fill: none;
        stroke-width: 10px;
      }

      .uuid-23350197-a230-4e61-94b6-f0ac0773a7a9 {
        stroke: #21afcf;
        stroke-linecap: round;
        stroke-linejoin: round;
      }
    </style>
  </defs>
  <g id="uuid-3a04849b-1c2d-4fba-b034-1a2f01428e93" data-name="Layer 1">
    <path class="uuid-ef85ad76-3326-456e-80c5-83049134afc0" d="M230.59,81.01c0,3.45,1.5,6.57,3.93,8.83s5.78,3.66,9.49,3.66,7.05-1.4,9.49-3.66,3.93-5.38,3.93-8.83-1.5-6.57-3.93-8.83-5.78-3.66-9.49-3.66-7.05,1.4-9.49,3.66-3.93,5.38-3.93,8.83Z"/>
    <path class="uuid-23350197-a230-4e61-94b6-f0ac0773a7a9" d="M293.7,190.69c-8.54-8.95-13.63-17.01-16.17-24.16-5.04-2.92-9.24-6.44-12.56-10.34-10.89-12.76-12.34-29.47-2.94-42h0c3.24-4.31,9.91-13.74,18.41-18.22,8.5-4.48,18.84-4.01,29.4,11.49,2.48,3.64,5.06,6.79,7.69,9.53,2.26-3.43,3.71-7.43,4.06-11.7,1.11-13.3-.22-26.14-5.08-35.35-1.32-2.76-2.72-4.95-2.94-6.84s.76-3.48,4.21-5.04c5.4-2.48,9.67-6.92,12.32-12.23,2.65-5.31,3.66-11.49,2.56-17.46-1.85-11.43-9.87-19.43-19.28-22.25s-20.2-.45-27.59,8.83c-1.63,1.85-2.79,4.18-3.73,6.58-.94,2.41-1.66,4.88-2.39,7.05-.63,1.55-1.68,2.11-2.9,2.17s-2.59-.4-3.83-.9c-9.5-3.82-19.69-5.94-29.95-6.38-10.27-.43-20.61.84-30.39,3.83-1.66.42-3.34,1.09-5.01,1.72-1.67.63-3.34,1.23-4.98,1.53-1.27.15-2.14-.22-2.78-.97-.46-.53-.81-1.26-1.13-2.13-.22-.6-.38-1.23-.55-1.85-1.48-5.53-4.84-10.02-9.66-13.34-4.82-3.31-10.8-5.04-16.76-4.54-13.13.97-21.28,9.76-23.09,19.57-1.81,9.81,2.72,20.65,14.94,25.76,1.64.67,3.13,1.32,3.99,2.21.86.89,1.12,2.03.32,3.7-9.18,13.51-13.53,29.16-13.06,44.53.47,15.38,5.74,30.5,15.8,43.01,1.17,1.49,1.23,3.32.52,4.78-.71,1.46-2.2,2.54-4.09,2.54-.03-.03-25.59,0-51.16,0-25.56.02-51.13.03-51.14,0-1.01,0-2-.4-2.82-1.04-.82-.64-1.45-1.53-1.71-2.5-1.73-6.36-5.29-11.86-10.02-15.77-4.73-3.91-10.62-6.23-17.01-6.23l.02-.02c-7.79,0-14.84,3.45-19.94,9.02-5.1,5.57-8.26,13.27-8.26,21.77-.06,9.62,4.05,18.21,10.4,23.86,6.34,5.65,14.93,8.36,23.82,6.23,1.43-.35,2.82.05,3.87.9s1.72,2.14,1.72,3.6v24.31c0,24.81,10.11,47.26,26.45,63.52s38.92,26.31,63.86,26.31h130.68c13.85,0,28.86-4.67,39.47-15.9,43.65-55.23-10.53-100.09-11.58-101.19Z"/>
    <path class="uuid-23350197-a230-4e61-94b6-f0ac0773a7a9" d="M161.15,265.52c-20.99,2.97-42.05-3.16-59.12-15.48-17.07-12.32-30.18-30.82-35.27-52.6"/>
    <path class="uuid-23350197-a230-4e61-94b6-f0ac0773a7a9" d="M199.72,226.72c-6.82,10.55-18.87,17.44-32.83,20.06-13.95,2.62-29.83.97-44.32-5.57"/>
    <path class="uuid-23350197-a230-4e61-94b6-f0ac0773a7a9" d="M187.44,191.19c-13.04,14.44-33.02,22.17-54.79,23.01-21.77.84-45.36-5.22-65.58-18.37"/>
  </g>
  <g id="uuid-00e6efe5-0474-4e31-9d81-b803dda650cf" data-name="Layer 2">
    <path class="uuid-f6d1a41e-315a-4a6c-bf09-566658ed787c" d="M262.03,114.2c3.24-4.31,9.91-13.75,18.41-18.23,8.5-4.48,18.84-4.01,29.4,11.49,7.35,10.78,15.6,17.34,23.25,21.32s14.67,5.36,19.58,5.8c2.68.24,5.12,1.39,7.02,3.17s3.24,4.19,3.69,6.93c.86,5.18.26,11.56-5.11,17.18-5.37,5.61-15.49,10.48-33.69,12.59-28.38,3.31-48.71-5.49-59.6-18.25-10.89-12.76-12.34-29.47-2.94-42h0Z"/>
  </g>
</svg>